<svg width="100" height="100" viewBox="0 0 100 100" fill="none" xmlns="http://www.w3.org/2000/svg">
<circle cx="50" cy="50" r="50" fill="#5673CF" fill-opacity="0.25"/>
<path d="M49.7755 37.2737C50.3746 37.2735 50.9602 37.097 51.4582 36.7667C51.9562 36.4364 52.3443 35.967 52.5734 35.4179C52.8025 34.8687 52.8624 34.2645 52.7454 33.6817C52.6284 33.0988 52.3398 32.5635 51.9161 32.1433C51.4924 31.7232 50.9526 31.4371 50.365 31.3212C49.7774 31.2054 49.1684 31.2649 48.6149 31.4924C48.0614 31.7199 47.5884 32.105 47.2556 32.5992C46.9228 33.0934 46.7451 33.6743 46.7451 34.2686C46.7462 35.0655 47.0658 35.8294 47.6339 36.3927C48.202 36.9561 48.9722 37.2729 49.7755 37.2737ZM49.7755 32.8136C50.0656 32.8138 50.3491 32.8994 50.5901 33.0594C50.8312 33.2194 51.019 33.4467 51.1299 33.7126C51.2407 33.9785 51.2696 34.2711 51.2129 34.5533C51.1562 34.8354 51.0164 35.0946 50.8112 35.298C50.606 35.5014 50.3446 35.6398 50.0601 35.6959C49.7756 35.7519 49.4807 35.723 49.2128 35.6129C48.9448 35.5027 48.7158 35.3162 48.5547 35.0769C48.3936 34.8376 48.3076 34.5564 48.3076 34.2686C48.3082 33.8827 48.463 33.5127 48.7382 33.24C49.0134 32.9672 49.3865 32.8139 49.7755 32.8136Z" fill="#5673CF"/>
<path d="M52.0023 38.3654H47.5498V39.9154H52.0023V38.3654Z" fill="#5673CF"/>
<path d="M52.0023 41.1101H47.5498V42.6601H52.0023V41.1101Z" fill="#5673CF"/>
<path d="M73.4375 60.4664H56.382C56.2218 60.4666 56.0655 60.5155 55.9341 60.6065L53.2372 62.4789H46.7628L44.0659 60.6065C43.9345 60.5155 43.7782 60.4666 43.618 60.4664H26.5625C26.3553 60.4664 26.1566 60.5481 26.0101 60.6934C25.8636 60.8388 25.7812 61.0359 25.7812 61.2414V62.1103C25.7813 62.2121 25.8015 62.3128 25.8408 62.4069C25.88 62.5009 25.9376 62.5863 26.0102 62.6583L30.3009 66.9124C30.4475 67.0577 30.6461 67.1394 30.8533 67.1395H69.1467C69.3539 67.1394 69.5525 67.0577 69.6991 66.9124L73.9898 62.6583C74.0624 62.5863 74.12 62.5009 74.1592 62.4069C74.1985 62.3128 74.2187 62.2121 74.2188 62.1103V61.2414C74.2188 61.0359 74.1364 60.8388 73.9899 60.6934C73.8434 60.5481 73.6447 60.4664 73.4375 60.4664ZM68.8233 65.5892H31.1768L27.5727 62.0164H43.3716L46.0686 63.8888C46.1999 63.9799 46.3562 64.0287 46.5164 64.0289H53.4836C53.6438 64.0287 53.8001 63.9799 53.9314 63.8888L56.6284 62.0164H72.4273L68.8233 65.5892Z" fill="#5673CF"/>
<path d="M30.2734 33.5103C30.2744 32.8929 30.5222 32.3011 30.9624 31.8646C31.4026 31.4282 31.9994 31.1828 32.6218 31.1823H42.7472C42.6168 31.7936 42.518 32.4111 42.4512 33.0324H33.6136C33.1823 33.0328 32.7689 33.203 32.4639 33.5055C32.159 33.808 31.9875 34.2181 31.987 34.6459V56.3743C31.9874 56.8022 32.1589 57.2124 32.4639 57.5149C32.7688 57.8174 33.1823 57.9875 33.6136 57.9879H44.1406V56.4379H33.6136C33.6051 56.4382 33.5966 56.4368 33.5887 56.4338C33.5808 56.4307 33.5736 56.426 33.5675 56.42C33.5615 56.4141 33.5568 56.4069 33.5537 56.3991C33.5506 56.3912 33.5492 56.3828 33.5495 56.3743V34.6459C33.5502 34.6293 33.5572 34.6135 33.569 34.6017C33.5809 34.5899 33.5968 34.583 33.6136 34.5824H42.3507C42.3494 34.6402 42.3485 34.6981 42.3477 34.756L39.6233 37.4572C39.0651 38.0105 38.6222 38.6675 38.3201 39.3906C38.0179 40.1138 37.8624 40.8889 37.8624 41.6717C37.8624 42.4545 38.0179 43.2296 38.3201 43.9527C38.6222 44.6759 39.0651 45.3328 39.6233 45.8861C39.7698 46.0314 39.9685 46.113 40.1756 46.113C40.3828 46.113 40.5815 46.0314 40.728 45.8861L44.0277 42.6143C44.437 43.5149 44.9173 44.382 45.4643 45.2075C45.5357 45.3138 45.6325 45.401 45.746 45.4614C45.8595 45.5217 45.9863 45.5533 46.1151 45.5534H46.4569V49.9012C46.4569 50.1067 46.5392 50.3038 46.6857 50.4492C46.8322 50.5945 47.0309 50.6762 47.2381 50.6762H47.3335V50.7746C47.3313 51.6151 47.4971 52.4477 47.8215 53.2242C48.1459 54.0007 48.6224 54.7056 49.2234 55.2982C49.2959 55.3702 49.382 55.4273 49.4768 55.4662C49.5715 55.5052 49.6731 55.5253 49.7757 55.5253C49.8783 55.5253 49.9799 55.5052 50.0746 55.4662C50.1694 55.4273 50.2555 55.3702 50.328 55.2982C50.929 54.7056 51.4055 54.0007 51.7299 53.2242C52.0543 52.4477 52.2202 51.6151 52.2179 50.7746V50.6762H52.3132C52.4158 50.6762 52.5174 50.6562 52.6122 50.6173C52.7071 50.5784 52.7932 50.5213 52.8658 50.4493C52.9383 50.3773 52.9959 50.2919 53.0351 50.1978C53.0743 50.1038 53.0945 50.003 53.0944 49.9012V45.5534H53.4355C53.5643 45.5533 53.6911 45.5217 53.8046 45.4614C53.9182 45.401 54.0149 45.3138 54.0863 45.2075C54.6331 44.3819 55.1133 43.5147 55.5224 42.614L58.8234 45.8864C58.9699 46.0317 59.1686 46.1134 59.3757 46.1134C59.5829 46.1134 59.7816 46.0317 59.9281 45.8864C60.4864 45.3332 60.9292 44.6762 61.2313 43.953C61.5335 43.2299 61.689 42.4548 61.689 41.672C61.689 40.8892 61.5335 40.1141 61.2313 39.3909C60.9292 38.6678 60.4864 38.0108 59.9281 37.4575L57.2031 34.755C57.2024 34.6974 57.2014 34.6398 57.2002 34.5824H65.6945C65.7107 34.5844 65.7258 34.5918 65.7374 34.6033C65.749 34.6148 65.7564 34.6298 65.7585 34.6459V56.3743C65.7577 56.3909 65.7506 56.4066 65.7388 56.4184C65.727 56.4301 65.7112 56.4371 65.6945 56.4379H55.8594V57.9879H65.6945C66.1257 57.9875 66.5392 57.8174 66.8442 57.5149C67.1491 57.2124 67.3206 56.8022 67.321 56.3743V34.6459C67.3206 34.2181 67.149 33.808 66.8441 33.5055C66.5392 33.203 66.1257 33.0328 65.6945 33.0324H57.1001C57.0337 32.4111 56.9352 31.7936 56.8052 31.1823H66.6862C67.3086 31.1828 67.9054 31.4282 68.3456 31.8647C68.7859 32.3011 69.0336 32.8929 69.0346 33.5103V59.4539H70.5971V33.5103C70.5957 32.482 70.1831 31.4961 69.45 30.7691C68.7168 30.0421 67.7229 29.6333 66.6862 29.6323H56.402C55.317 26.0899 53.1815 22.9538 50.2739 20.6327C50.1352 20.5214 49.9622 20.4606 49.7838 20.4606C49.6054 20.4605 49.4323 20.5211 49.2935 20.6324C46.3807 22.9516 44.2402 26.088 43.1515 29.6323H32.6218C31.5852 29.6333 30.5912 30.0421 29.8581 30.7691C29.1249 31.4961 28.7124 32.482 28.7109 33.5103V59.4539H30.2734V33.5103ZM50.6554 50.7745C50.658 51.7677 50.3507 52.7374 49.7757 53.5506C49.2006 52.7375 48.8934 51.7677 48.896 50.7745V50.6761H50.6554V50.7745ZM51.5319 49.1261H48.0194V45.5533H51.5319V49.1261ZM57.113 36.8578L58.8234 38.5539C59.5618 39.2858 60.0171 40.2521 60.1094 41.2836C60.2016 42.3151 59.9251 43.3458 59.3281 44.1953L56.1583 41.0522C56.6414 39.6961 56.9619 38.2883 57.113 36.8578ZM49.7826 22.2463C51.4086 23.6481 52.7526 25.3424 53.7435 27.2399H45.8138C46.8072 25.3418 48.1538 23.6474 49.7826 22.2463ZM45.1029 28.7899H54.452C55.2961 30.89 55.7038 33.1377 55.6506 35.398L55.6458 35.4028L55.6508 35.4077C55.5698 38.4568 54.6574 41.4273 53.0105 44.0031H46.5391C45.1036 41.7608 44.2249 39.2127 43.9752 36.568C43.7256 33.9233 44.112 31.2576 45.1029 28.7899ZM43.392 41.0528L40.2237 44.1945C39.6267 43.3451 39.3501 42.3145 39.4423 41.2831C39.5345 40.2517 39.9897 39.2854 40.728 38.5535L42.437 36.8588C42.5882 38.2892 42.9085 39.6969 43.392 41.0528Z" fill="#5673CF"/>
<path d="M47.8711 56.4409H46.333V57.9909H47.8711V56.4409Z" fill="#5673CF"/>
<path d="M50.7686 56.4409H49.2305V57.9909H50.7686V56.4409Z" fill="#5673CF"/>
<path d="M53.667 56.4409H52.1289V57.9909H53.667V56.4409Z" fill="#5673CF"/>
</svg>
