<svg width="100" height="100" viewBox="0 0 100 100" fill="none" xmlns="http://www.w3.org/2000/svg">
<circle cx="50" cy="50" r="50" fill="#5673CF" fill-opacity="0.25"/>
<path d="M74.0558 43.1522H72.7501L68.0279 34.0761H72.1669C72.6887 34.0761 73.1114 33.6699 73.1114 33.1685C73.1114 32.667 72.6887 32.2608 72.1669 32.2608H61.1545C59.9999 32.2608 58.8642 31.8093 58.045 31.0197C56.5126 29.5448 54.4915 28.7143 52.3335 28.644V26.8152C52.3335 25.8146 51.4858 25 50.4446 25H48.5557C47.5144 25 46.6668 25.8146 46.6668 26.8152V28.644C44.5087 28.7144 42.49 29.5449 40.9553 31.0197C40.1336 31.8071 39.0003 32.2608 37.8457 32.2608H26.8333C25.6079 32.279 25.5796 34.0534 26.8333 34.0761H30.9724L26.2502 43.1522H24.9444C24.4226 43.1522 24 43.5584 24 44.0598C24.4675 54.8966 40.5346 54.8942 41 44.0598C41 43.5584 40.5774 43.1522 40.0556 43.1522H38.7498L34.0276 34.0761H37.8455C39.4983 34.0761 41.118 33.4294 42.2915 32.3039C43.4697 31.1717 45.0139 30.5296 46.6667 30.4592V55.6592C46.6667 56.1606 47.0893 56.5668 47.6111 56.5668C48.1329 56.5668 48.5556 56.1606 48.5556 55.6592V26.8154H50.4444V55.1422C50.4444 55.6437 50.8671 56.0498 51.3889 56.0498C51.9107 56.0498 52.3333 55.6437 52.3333 55.1422V30.4598C53.9861 30.5279 55.5303 31.1723 56.7085 32.3045C57.882 33.43 59.5017 34.0766 61.1545 34.0766H64.9724L60.2502 43.1528H58.9444C58.4226 43.1528 58 43.5589 58 44.0604C58.4628 54.8908 74.5328 54.8995 75 44.0604C75 43.5589 74.5774 43.1528 74.0556 43.1528L74.0558 43.1522ZM32.5002 50.4131C29.1758 50.4131 26.4159 48.042 25.9577 44.9674H33.1258C33.6476 44.9674 34.0703 44.5613 34.0703 44.0598C34.0703 43.5584 33.6476 43.1522 33.1258 43.1522H28.3635L32.5025 35.1995L37.324 44.4661C37.6167 45.0878 38.4761 44.963 39.0452 44.9676C38.5848 48.0421 35.827 50.4133 32.5027 50.4133L32.5002 50.4131ZM66.5002 35.1972L70.6393 43.1522H62.3614L66.5002 35.1972ZM66.5002 50.4131C63.1758 50.4131 60.4159 48.042 59.9577 44.9674H73.0452C72.5847 48.042 69.827 50.4131 66.5027 50.4131H66.5002Z" fill="#5673CF"/>
<path d="M27.9744 63.1198C27.3888 64.7172 28.1468 66.4666 29.7382 67.1904L46.1972 74.6808C47.8807 75.4477 49.6916 75.8266 51.5002 75.8266C53.663 75.8266 55.8187 75.2821 57.7453 74.2043L64.2806 70.542C64.5403 70.3968 64.8354 70.3197 65.1353 70.3197H70.2755C70.7973 70.3197 71.2199 69.9135 71.2199 69.4121C71.2199 68.9106 70.7973 68.5045 70.2755 68.5045H65.1353C64.5002 68.5045 63.8745 68.6656 63.3267 68.9741L56.7915 72.6364C53.7952 74.3177 50.1377 74.4652 47.0025 73.0403L30.5435 65.5499C28.8718 64.7785 29.821 62.3075 31.6296 62.7976L42.1179 65.7224C42.8121 66.3486 43.7376 66.7389 44.7624 66.7389H53.5195C54.7591 66.7185 54.7615 64.9441 53.5195 64.9237H44.7624C42.1439 64.8601 42.1368 61.1684 44.7624 61.1026H50.8799C51.7299 61.1026 52.5563 60.8712 53.2741 60.4333C55.0071 59.444 57.4155 57.5085 59.5688 57.6742H70.2741C71.4995 57.6628 71.5255 55.8771 70.2741 55.8589H59.5688C56.9692 55.6865 54.3413 57.6446 52.261 58.9017C51.8478 59.1536 51.3685 59.2874 50.8798 59.2874H44.7622C42.4601 59.2693 40.5665 61.3046 40.9372 63.5033L32.1564 61.055C30.4069 60.5672 28.5746 61.4771 27.9725 63.1221L27.9744 63.1198Z" fill="#5673CF"/>
</svg>
