<svg width="100" height="100" viewBox="0 0 100 100" fill="none" xmlns="http://www.w3.org/2000/svg">
<circle cx="50" cy="50" r="50" fill="#5673CF" fill-opacity="0.25"/>
<path d="M31.217 56.9882C37.6143 55.4365 39.6863 55.9191 42.5992 56.5964C44.5217 57.044 46.8447 57.5853 51.3709 57.5853C52.3139 57.5853 53.1723 57.9703 53.794 58.5883C54.4197 59.2117 54.8067 60.0673 54.8067 61.0043V62.1595C54.8067 62.7708 54.6423 63.347 54.3561 63.8445L55.6732 64.0929L70.9857 57.2756C71.817 56.9054 72.733 56.8259 73.5528 57.044C74.3734 57.2621 75.1006 57.7724 75.5694 58.5816L76.1498 59.5826C76.622 60.3971 76.7173 61.3281 76.4914 62.1689C76.2641 63.0131 75.7114 63.7752 74.8949 64.2457L57.8656 74.0701C57.1675 74.4733 56.4484 74.7453 55.6989 74.886C54.9501 75.0273 54.1843 75.0368 53.3888 74.9169L33.0428 71.852H31.219C31.1954 72.443 30.943 72.9775 30.5487 73.37C30.134 73.7826 29.561 74.0384 28.9299 74.0384H25.2905C24.6594 74.0384 24.0864 73.7826 23.6717 73.37C23.2571 72.9573 23 72.3871 23 71.7591V57.1181C23 56.49 23.2571 55.9198 23.6717 55.5072C24.0864 55.0945 24.6594 54.8387 25.2905 54.8387H27.1102H28.9299C29.561 54.8387 30.134 55.0945 30.5487 55.5072C30.9349 55.8915 31.1839 56.4119 31.217 56.9882ZM65.5144 42.1735C64.8819 42.1735 64.3692 41.6632 64.3692 41.0338C64.3692 40.4044 64.8819 39.8941 65.5144 39.8941H69.2011C69.8336 39.8941 70.3464 40.4044 70.3464 41.0338V46.0927C70.3464 47.0312 69.9595 47.8854 69.3385 48.5041C68.7121 49.1268 67.8536 49.5118 66.9106 49.5118H64.1175C63.1759 49.5118 62.3161 49.1268 61.6944 48.5088C61.0687 47.8854 60.6818 47.0312 60.6818 46.0927V44.7026C60.6818 44.0732 61.1945 43.5629 61.827 43.5629C62.4595 43.5629 62.9723 44.0732 62.9723 44.7026V46.0927C62.9723 46.4071 63.1015 46.6932 63.3071 46.8992C63.5141 47.1039 63.8016 47.2324 64.1175 47.2324H66.9106C67.2265 47.2324 67.514 47.1039 67.721 46.8992C67.9267 46.6932 68.0559 46.4071 68.0559 46.0927V42.1735H65.5144ZM42.5789 37.3407L44.107 40.1412L47.3338 40.7719C47.9534 40.8918 48.3579 41.4909 48.2375 42.1075C48.1902 42.3505 48.0677 42.5606 47.8986 42.7181L45.7393 44.9806L46.1351 48.2388C46.2088 48.8629 45.7596 49.4297 45.1326 49.5031C44.91 49.5293 44.6956 49.4896 44.5068 49.4001L41.6143 48.0261L38.6277 49.4048C38.0547 49.668 37.3755 49.4189 37.111 48.8487C37.0075 48.6259 36.9832 48.3869 37.0251 48.1628L37.4371 45.0655L35.196 42.6642C34.7664 42.2045 34.7921 41.4842 35.2541 41.0567C35.4334 40.8911 35.6512 40.7935 35.8765 40.7625L38.974 40.1937L40.5759 37.3313C40.8817 36.7833 41.5777 36.5861 42.1284 36.8904C42.3252 36.9994 42.4774 37.1576 42.5789 37.3407ZM42.3503 41.6982L41.5588 40.2455L40.7078 41.7655C40.5475 42.0516 40.2647 42.2677 39.9157 42.331L38.2847 42.6306L39.476 43.9076C39.6978 44.1479 39.8162 44.4805 39.7709 44.8292L39.5531 46.4704L41.0893 45.7609C41.3978 45.5993 41.7766 45.5791 42.1155 45.7393L43.6125 46.4509L43.4028 44.7215C43.367 44.397 43.4685 44.0591 43.712 43.8046L44.8538 42.6077L43.1722 42.2792C42.8346 42.224 42.5255 42.02 42.3503 41.6982ZM61.2703 27.9431L60.9686 27.6779L55.1537 33.1421C55.983 33.8341 56.8104 34.5235 57.6397 35.2155C58.8499 32.7914 60.0608 30.3646 61.2703 27.9431ZM63.46 28.6661L69.0327 30.4494C69.3378 30.5463 69.5732 30.7597 69.7051 31.025L73.6895 38.9604C73.9709 39.5232 73.7409 40.2071 73.1754 40.4872C72.6098 40.7672 71.9226 40.5383 71.6412 39.9756L67.8732 32.4656L62.4324 30.7247L59.0657 37.4673C59.0231 37.5649 58.9656 37.6585 58.8932 37.7446C58.488 38.226 57.7662 38.2899 57.2825 37.8867L56.2617 37.0351L55.9573 38.0435L59.5981 50.218C59.709 50.5916 59.6244 51.0123 59.339 51.318L54.2141 56.8111C53.7521 57.2386 53.0282 57.213 52.5987 56.7532L47.555 51.3429C47.2715 51.0568 47.1491 50.63 47.2722 50.218L50.9129 38.0435L50.6085 37.0351L49.5877 37.8867C49.1041 38.2899 48.3823 38.226 47.9771 37.7446C47.9047 37.6585 47.8472 37.5649 47.8046 37.4673L44.4378 30.7247L38.997 32.4656L35.2291 39.9756C34.9477 40.5383 34.2604 40.7672 33.6949 40.4872C33.1294 40.2071 32.8994 39.5232 33.1808 38.9604L37.1625 31.0236C37.2971 30.7597 37.5325 30.5463 37.8376 30.4494L43.4103 28.6661L43.1634 28.1713C42.9219 27.684 43.0633 27.1084 43.4725 26.7819L45.0987 25.3541C45.3078 25.136 45.602 25 45.9288 25H60.9415C61.2682 25 61.5625 25.136 61.7715 25.3541L63.3978 26.7819C63.807 27.1084 63.9484 27.6846 63.7069 28.1713L63.46 28.6661ZM49.2306 35.2155C50.0599 34.5241 50.8879 33.8335 51.7173 33.1421L45.9017 27.6779L45.6 27.9431C46.8095 30.3646 48.0204 32.7914 49.2306 35.2155ZM58.0645 27.2794H48.8058L53.4355 31.6295L58.0645 27.2794ZM28.2555 57.1181V59.2224C28.2555 59.8519 27.7427 60.3621 27.1102 60.3621C26.4777 60.3621 25.9649 59.8519 25.9649 59.2224V57.1181H25.2905V71.7591H28.9299V57.1181H28.2555ZM31.2204 69.5726H33.1233C33.1977 69.5726 33.2708 69.58 33.3418 69.5934L53.7284 72.6645C54.2756 72.7473 54.7904 72.7432 55.2782 72.651C55.7659 72.5595 56.2442 72.3764 56.7197 72.1017L73.749 62.2773C74.021 62.1205 74.2063 61.8647 74.2821 61.5819C74.3585 61.2965 74.3281 60.9835 74.1718 60.7135L73.5914 59.7125C73.45 59.4681 73.222 59.3113 72.963 59.2426C72.641 59.1571 72.2669 59.1948 71.9165 59.3503L56.2766 66.3137C56.0561 66.4113 55.8214 66.4342 55.6008 66.3925L51.2782 65.5786H42.3259C41.6934 65.5786 41.1807 65.0683 41.1807 64.4389C41.1807 63.8095 41.6934 63.2992 42.3259 63.2992H51.3709C51.6868 63.2992 51.9743 63.1706 52.1813 62.966C52.387 62.76 52.5162 62.4739 52.5162 62.1595V61.0043C52.5162 60.69 52.387 60.4039 52.1813 60.1979C51.9743 59.9932 51.6868 59.8646 51.3709 59.8646C46.5903 59.8646 44.1219 59.2891 42.0797 58.8138C39.4002 58.1905 37.5142 57.7515 31.2204 59.3301V69.5726Z" fill="#5673CF"/>
</svg>
