<svg width="355" height="83" viewBox="0 0 355 83" fill="none" xmlns="http://www.w3.org/2000/svg">
<path d="M35.2372 20.3V28.22H22.9372V62H13.9972V28.22H1.69719V20.3H35.2372ZM55.2177 29.6C62.7777 29.6 67.5777 34.7 67.5777 42.08V62H58.7577V43.82C58.7577 39.8 56.1177 37.52 52.5177 37.52C48.9777 37.52 46.2177 40.04 46.1577 43.28V62H37.2777V18.14H46.1577V32.84C48.3177 30.92 51.4377 29.6 55.2177 29.6ZM78.9444 48.92C79.9644 53.06 83.2044 55.4 87.4044 55.4C91.3044 55.4 93.2844 54.02 94.6644 51.5L101.444 56C98.9844 59.6 94.9044 62.78 87.1644 62.78C76.9044 62.78 70.2444 55.64 70.2444 46.22C70.2444 37.04 77.5044 29.66 86.5644 29.66C96.7644 29.66 102.824 37.64 102.824 45.56C102.824 46.94 102.764 48.14 102.644 48.92H78.9444ZM78.8244 43.1H94.4844C93.6444 38.96 90.8844 36.38 86.8044 36.38C82.7244 36.38 79.7244 38.78 78.8244 43.1ZM141.442 20.3H150.682L136.342 62H125.422L111.082 20.3H120.322L130.882 51.5L141.442 20.3ZM155.341 48.92C156.361 53.06 159.601 55.4 163.801 55.4C167.701 55.4 169.681 54.02 171.061 51.5L177.841 56C175.381 59.6 171.301 62.78 163.561 62.78C153.301 62.78 146.641 55.64 146.641 46.22C146.641 37.04 153.901 29.66 162.961 29.66C173.161 29.66 179.221 37.64 179.221 45.56C179.221 46.94 179.161 48.14 179.041 48.92H155.341ZM155.221 43.1H170.881C170.041 38.96 167.281 36.38 163.201 36.38C159.121 36.38 156.121 38.78 155.221 43.1ZM200.026 29.6C207.586 29.6 212.386 34.7 212.386 42.08V62H203.566V43.82C203.566 39.8 200.926 37.52 197.326 37.52C193.786 37.52 191.026 40.04 190.966 43.28V62H182.086V30.38H190.486V33.32C192.646 31.1 195.946 29.6 200.026 29.6ZM230.906 62C223.046 62 219.026 57.32 219.026 50.18V37.94H213.626V30.38H216.326C218.486 30.38 219.566 29.24 219.566 26.96V22.04H228.206V30.38H235.886V37.94H227.906V49.1C227.906 52.46 229.646 54.26 232.766 54.26H236.126V62H230.906ZM259.126 30.38H268.006V62H259.666V59C257.446 61.28 254.206 62.78 250.426 62.78C242.386 62.78 238.186 57.26 238.186 50.06V30.38H247.066V48.92C247.066 52.4 249.346 54.86 253.066 54.86C256.726 54.86 259.126 52.4 259.126 49.1V30.38ZM280.946 33.44C283.106 31.16 286.286 29.6 290.006 29.6V37.94C284.606 37.94 281.426 40.4 281.426 44.6V62H272.546V30.38H280.946V33.44ZM296.808 25.76C293.568 25.76 290.988 23.42 290.988 20.12C290.988 16.88 293.568 14.48 296.808 14.48C300.048 14.48 302.568 16.88 302.568 20.12C302.568 23.42 300.048 25.76 296.808 25.76ZM292.308 62V30.38H301.188V62H292.308ZM317.443 62.78C310.423 62.78 305.383 59.9 303.583 54.44L311.083 51.56C311.923 54.32 314.203 55.94 317.743 55.94C320.383 55.94 321.943 54.86 321.943 53.06C321.943 47.54 305.083 50.18 305.083 39.32C305.083 33.32 310.003 29.66 317.683 29.66C323.983 29.66 328.543 32.24 329.863 36.62L322.363 39.5C321.583 37.34 319.903 36.26 317.562 36.26C315.163 36.26 313.843 37.22 313.843 38.84C313.843 43.94 330.763 40.88 330.763 52.52C330.763 58.88 325.543 62.78 317.443 62.78ZM347.824 62C339.964 62 335.944 57.32 335.944 50.18V37.94H330.544V30.38H333.244C335.404 30.38 336.484 29.24 336.484 26.96V22.04H345.124V30.38H352.804V37.94H344.824V49.1C344.824 52.46 346.564 54.26 349.684 54.26H353.044V62H347.824Z" fill="#29486E"/>
</svg>
